<svg xmlns="http://www.w3.org/2000/svg" viewBox="0 0 960 423" width="960" height="423" role="img" style="font-family:system-ui, sans-serif;font-size:15px"><title>Time to first byte by concurrent sessions</title><desc>Median and 95th-percentile time to first byte on the four-card box at 4 to 32 concurrent sessions, affinity on against vLLM’s balancer, on a log scale from 0.3 to 100 seconds. 4 sessions: median 2.05 s off, 0.38 s on, p95 3.5 s off, 2.84 s on; 8 sessions: median 2.33 s off, 0.48 s on, p95 6.32 s off, 5.03 s on; 16 sessions: median 3.25 s off, 0.85 s on, p95 26.24 s off, 24.88 s on; 24 sessions: median 5.06 s off, 13.14 s on, p95 58.82 s off, 38.34 s on; 32 sessions: median 12.32 s off, 27.66 s on, p95 82.84 s off, 38.92 s on.</desc><rect width="960" height="423" style="fill:#1C1409"/><line x1="0" x2="26" y1="15" y2="15" style="stroke:#C98500;stroke-width:2.5"/><circle cx="13" cy="15" r="5" style="fill:#C98500;stroke:#1C1409;stroke-width:2"></circle><text x="34" y="19.9" text-anchor="start" style="fill:#EAE5DC">affinity on</text><line x1="150" x2="176" y1="15" y2="15" style="stroke:#3987E5;stroke-width:2.5"/><rect x="158.5" y="10.5" width="9" height="9" style="fill:#3987E5;stroke:#1C1409;stroke-width:2"></rect><text x="184" y="19.9" text-anchor="start" style="fill:#EAE5DC">vLLM balancer</text><text x="0" y="54" text-anchor="start" style="fill:#EAE5DC;font-weight:600">Time to first byte, median</text><line x1="43.5" x2="359" y1="372.5" y2="372.5" style="stroke:#433C31;stroke-width:1"/><text x="35.5" y="377.4" text-anchor="end" style="fill:#ACA397">0.3</text><line x1="43.5" x2="359" y1="314" y2="314" style="stroke:#433C31;stroke-width:1"/><text x="35.5" y="318.9" text-anchor="end" style="fill:#ACA397">1</text><line x1="43.5" x2="359" y1="260.5" y2="260.5" style="stroke:#433C31;stroke-width:1"/><text x="35.5" y="265.5" text-anchor="end" style="fill:#ACA397">3</text><line x1="43.5" x2="359" y1="202" y2="202" style="stroke:#433C31;stroke-width:1"/><text x="35.5" y="206.9" text-anchor="end" style="fill:#ACA397">10</text><line x1="43.5" x2="359" y1="148.5" y2="148.5" style="stroke:#433C31;stroke-width:1"/><text x="35.5" y="153.5" text-anchor="end" style="fill:#ACA397">30</text><line x1="43.5" x2="359" y1="90" y2="90" style="stroke:#433C31;stroke-width:1"/><text x="35.5" y="95" text-anchor="end" style="fill:#ACA397">100</text><text x="0" y="76.5" text-anchor="start" style="fill:#ACA397">seconds, log scale</text><text x="75" y="392.8" text-anchor="middle" style="fill:#ACA397">4</text><text x="138.2" y="392.8" text-anchor="middle" style="fill:#ACA397">8</text><text x="201.2" y="392.8" text-anchor="middle" style="fill:#ACA397">16</text><text x="264.4" y="392.8" text-anchor="middle" style="fill:#ACA397">24</text><text x="327.4" y="392.8" text-anchor="middle" style="fill:#ACA397">32</text><text x="201.2" y="415.2" text-anchor="middle" style="fill:#ACA397">concurrent sessions</text><polyline points="75,279 138.2,272.8 201.2,256.6 264.4,235.1 327.4,191.8" style="fill:none;stroke:#3987E5;stroke-width:2.5;stroke-linejoin:round"/><rect x="70.5" y="274.5" width="9" height="9" style="fill:#3987E5;stroke:#1C1409;stroke-width:2"><title>vLLM balancer, 4 sessions: 2.05 s</title></rect><rect x="133.7" y="268.3" width="9" height="9" style="fill:#3987E5;stroke:#1C1409;stroke-width:2"><title>vLLM balancer, 8 sessions: 2.33 s</title></rect><rect x="196.8" y="252.1" width="9" height="9" style="fill:#3987E5;stroke:#1C1409;stroke-width:2"><title>vLLM balancer, 16 sessions: 3.25 s</title></rect><rect x="259.9" y="230.6" width="9" height="9" style="fill:#3987E5;stroke:#1C1409;stroke-width:2"><title>vLLM balancer, 24 sessions: 5.06 s</title></rect><rect x="322.9" y="187.3" width="9" height="9" style="fill:#3987E5;stroke:#1C1409;stroke-width:2"><title>vLLM balancer, 32 sessions: 12.32 s</title></rect><text x="339.4" y="196.8" text-anchor="start" style="fill:#EAE5DC">vLLM balancer</text><polyline points="75,361 138.2,349.6 201.2,321.9 264.4,188.7 327.4,152.5" style="fill:none;stroke:#C98500;stroke-width:2.5;stroke-linejoin:round"/><circle cx="75" cy="361" r="5" style="fill:#C98500;stroke:#1C1409;stroke-width:2"><title>affinity on, 4 sessions: 0.38 s</title></circle><circle cx="138.2" cy="349.6" r="5" style="fill:#C98500;stroke:#1C1409;stroke-width:2"><title>affinity on, 8 sessions: 0.48 s</title></circle><circle cx="201.2" cy="321.9" r="5" style="fill:#C98500;stroke:#1C1409;stroke-width:2"><title>affinity on, 16 sessions: 0.85 s</title></circle><circle cx="264.4" cy="188.7" r="5" style="fill:#C98500;stroke:#1C1409;stroke-width:2"><title>affinity on, 24 sessions: 13.14 s</title></circle><circle cx="327.4" cy="152.5" r="5" style="fill:#C98500;stroke:#1C1409;stroke-width:2"><title>affinity on, 32 sessions: 27.66 s</title></circle><text x="339.4" y="157.4" text-anchor="start" style="fill:#EAE5DC">affinity on</text><text x="490" y="54" text-anchor="start" style="fill:#EAE5DC;font-weight:600">Time to first byte, p95</text><line x1="533.5" x2="849" y1="372.5" y2="372.5" style="stroke:#433C31;stroke-width:1"/><text x="525.5" y="377.4" text-anchor="end" style="fill:#ACA397">0.3</text><line x1="533.5" x2="849" y1="314" y2="314" style="stroke:#433C31;stroke-width:1"/><text x="525.5" y="318.9" text-anchor="end" style="fill:#ACA397">1</text><line x1="533.5" x2="849" y1="260.5" y2="260.5" style="stroke:#433C31;stroke-width:1"/><text x="525.5" y="265.5" text-anchor="end" style="fill:#ACA397">3</text><line x1="533.5" x2="849" y1="202" y2="202" style="stroke:#433C31;stroke-width:1"/><text x="525.5" y="206.9" text-anchor="end" style="fill:#ACA397">10</text><line x1="533.5" x2="849" y1="148.5" y2="148.5" style="stroke:#433C31;stroke-width:1"/><text x="525.5" y="153.5" text-anchor="end" style="fill:#ACA397">30</text><line x1="533.5" x2="849" y1="90" y2="90" style="stroke:#433C31;stroke-width:1"/><text x="525.5" y="95" text-anchor="end" style="fill:#ACA397">100</text><text x="490" y="76.5" text-anchor="start" style="fill:#ACA397">seconds, log scale</text><text x="565" y="392.8" text-anchor="middle" style="fill:#ACA397">4</text><text x="628.1" y="392.8" text-anchor="middle" style="fill:#ACA397">8</text><text x="691.2" y="392.8" text-anchor="middle" style="fill:#ACA397">16</text><text x="754.4" y="392.8" text-anchor="middle" style="fill:#ACA397">24</text><text x="817.5" y="392.8" text-anchor="middle" style="fill:#ACA397">32</text><text x="691.2" y="415.2" text-anchor="middle" style="fill:#ACA397">concurrent sessions</text><polyline points="565,253 628.1,224.3 691.2,155.1 754.4,115.8 817.5,99.2" style="fill:none;stroke:#3987E5;stroke-width:2.5;stroke-linejoin:round"/><rect x="560.5" y="248.5" width="9" height="9" style="fill:#3987E5;stroke:#1C1409;stroke-width:2"><title>vLLM balancer, 4 sessions: 3.5 s</title></rect><rect x="623.6" y="219.8" width="9" height="9" style="fill:#3987E5;stroke:#1C1409;stroke-width:2"><title>vLLM balancer, 8 sessions: 6.32 s</title></rect><rect x="686.8" y="150.6" width="9" height="9" style="fill:#3987E5;stroke:#1C1409;stroke-width:2"><title>vLLM balancer, 16 sessions: 26.24 s</title></rect><rect x="749.9" y="111.3" width="9" height="9" style="fill:#3987E5;stroke:#1C1409;stroke-width:2"><title>vLLM balancer, 24 sessions: 58.82 s</title></rect><rect x="813" y="94.7" width="9" height="9" style="fill:#3987E5;stroke:#1C1409;stroke-width:2"><title>vLLM balancer, 32 sessions: 82.84 s</title></rect><text x="829.5" y="104.1" text-anchor="start" style="fill:#EAE5DC">vLLM balancer</text><polyline points="565,263.2 628.1,235.4 691.2,157.6 754.4,136.6 817.5,135.9" style="fill:none;stroke:#C98500;stroke-width:2.5;stroke-linejoin:round"/><circle cx="565" cy="263.2" r="5" style="fill:#C98500;stroke:#1C1409;stroke-width:2"><title>affinity on, 4 sessions: 2.84 s</title></circle><circle cx="628.1" cy="235.4" r="5" style="fill:#C98500;stroke:#1C1409;stroke-width:2"><title>affinity on, 8 sessions: 5.03 s</title></circle><circle cx="691.2" cy="157.6" r="5" style="fill:#C98500;stroke:#1C1409;stroke-width:2"><title>affinity on, 16 sessions: 24.88 s</title></circle><circle cx="754.4" cy="136.6" r="5" style="fill:#C98500;stroke:#1C1409;stroke-width:2"><title>affinity on, 24 sessions: 38.34 s</title></circle><circle cx="817.5" cy="135.9" r="5" style="fill:#C98500;stroke:#1C1409;stroke-width:2"><title>affinity on, 32 sessions: 38.92 s</title></circle><text x="829.5" y="140.8" text-anchor="start" style="fill:#EAE5DC">affinity on</text></svg>
