<svg xmlns="http://www.w3.org/2000/svg" viewBox="0 0 640 403" width="640" height="403" role="img" style="font-family:system-ui, sans-serif;font-size:15px"><title>Replicas busy by concurrent sessions</title><desc>Average replicas with running requests, of four, affinity on against vLLM’s balancer: 4 sessions 2.71 off, 2.83 on; 8 sessions 3.74 off, 3.74 on; 16 sessions 3.91 off, 3.69 on; 24 sessions 3.91 off, 4 on; 32 sessions 4 off, 4 on.</desc><rect width="640" height="403" style="fill:#1C1409"/><line x1="0" x2="26" y1="15" y2="15" style="stroke:#C98500;stroke-width:2.5"/><circle cx="13" cy="15" r="5" style="fill:#C98500;stroke:#1C1409;stroke-width:2"></circle><text x="34" y="19.9" text-anchor="start" style="fill:#EAE5DC">affinity on</text><line x1="150" x2="176" y1="15" y2="15" style="stroke:#3987E5;stroke-width:2.5"/><rect x="158.5" y="10.5" width="9" height="9" style="fill:#3987E5;stroke:#1C1409;stroke-width:2"></rect><text x="184" y="19.9" text-anchor="start" style="fill:#EAE5DC">vLLM balancer</text><text x="0" y="54" text-anchor="start" style="fill:#EAE5DC;font-weight:600">Replicas busy</text><line x1="43.5" x2="529" y1="352.5" y2="352.5" style="stroke:#433C31;stroke-width:1"/><text x="35.5" y="357.4" text-anchor="end" style="fill:#ACA397">0</text><line x1="43.5" x2="529" y1="286.9" y2="286.9" style="stroke:#433C31;stroke-width:1"/><text x="35.5" y="291.8" text-anchor="end" style="fill:#ACA397">1</text><line x1="43.5" x2="529" y1="221.2" y2="221.2" style="stroke:#433C31;stroke-width:1"/><text x="35.5" y="226.2" text-anchor="end" style="fill:#ACA397">2</text><line x1="43.5" x2="529" y1="155.6" y2="155.6" style="stroke:#433C31;stroke-width:1"/><text x="35.5" y="160.6" text-anchor="end" style="fill:#ACA397">3</text><line x1="43.5" x2="529" y1="90" y2="90" style="stroke:#433C31;stroke-width:1"/><text x="35.5" y="95" text-anchor="end" style="fill:#ACA397">4</text><text x="0" y="76.5" text-anchor="start" style="fill:#ACA397">replicas busy, of 4</text><text x="92" y="372.8" text-anchor="middle" style="fill:#ACA397">4</text><text x="189.2" y="372.8" text-anchor="middle" style="fill:#ACA397">8</text><text x="286.2" y="372.8" text-anchor="middle" style="fill:#ACA397">16</text><text x="383.4" y="372.8" text-anchor="middle" style="fill:#ACA397">24</text><text x="480.4" y="372.8" text-anchor="middle" style="fill:#ACA397">32</text><text x="286.2" y="395.2" text-anchor="middle" style="fill:#ACA397">concurrent sessions</text><polyline points="92,174.7 189.2,107.1 286.2,95.9 383.4,95.9 480.4,90" style="fill:none;stroke:#3987E5;stroke-width:2.5;stroke-linejoin:round"/><rect x="87.5" y="170.2" width="9" height="9" style="fill:#3987E5;stroke:#1C1409;stroke-width:2"><title>vLLM balancer, 4 sessions: 2.71</title></rect><rect x="184.7" y="102.6" width="9" height="9" style="fill:#3987E5;stroke:#1C1409;stroke-width:2"><title>vLLM balancer, 8 sessions: 3.74</title></rect><rect x="281.8" y="91.4" width="9" height="9" style="fill:#3987E5;stroke:#1C1409;stroke-width:2"><title>vLLM balancer, 16 sessions: 3.91</title></rect><rect x="378.9" y="91.4" width="9" height="9" style="fill:#3987E5;stroke:#1C1409;stroke-width:2"><title>vLLM balancer, 24 sessions: 3.91</title></rect><rect x="475.9" y="85.5" width="9" height="9" style="fill:#3987E5;stroke:#1C1409;stroke-width:2"><title>vLLM balancer, 32 sessions: 4</title></rect><text x="492.4" y="85.6" text-anchor="start" style="fill:#EAE5DC">vLLM balancer</text><polyline points="92,166.8 189.2,107.1 286.2,110.3 383.4,90 480.4,90" style="fill:none;stroke:#C98500;stroke-width:2.5;stroke-linejoin:round"/><circle cx="92" cy="166.8" r="5" style="fill:#C98500;stroke:#1C1409;stroke-width:2"><title>affinity on, 4 sessions: 2.83</title></circle><circle cx="189.2" cy="107.1" r="5" style="fill:#C98500;stroke:#1C1409;stroke-width:2"><title>affinity on, 8 sessions: 3.74</title></circle><circle cx="286.2" cy="110.3" r="5" style="fill:#C98500;stroke:#1C1409;stroke-width:2"><title>affinity on, 16 sessions: 3.69</title></circle><circle cx="383.4" cy="90" r="5" style="fill:#C98500;stroke:#1C1409;stroke-width:2"><title>affinity on, 24 sessions: 4</title></circle><circle cx="480.4" cy="90" r="5" style="fill:#C98500;stroke:#1C1409;stroke-width:2"><title>affinity on, 32 sessions: 4</title></circle><text x="492.4" y="104.3" text-anchor="start" style="fill:#EAE5DC">affinity on</text></svg>
