<svg xmlns="http://www.w3.org/2000/svg" viewBox="0 0 640 403" width="640" height="403" role="img" style="font-family:system-ui, sans-serif;font-size:15px"><title>Completed sessions per hour by concurrent sessions</title><desc>Completed six-turn sessions per hour, affinity on against vLLM’s balancer. A step lasts three minutes, so one more or one fewer completed session moves a point by 20.</desc><rect width="640" height="403" style="fill:#EFECE7"/><line x1="0" x2="26" y1="15" y2="15" style="stroke:#A86400;stroke-width:2.5"/><circle cx="13" cy="15" r="5" style="fill:#A86400;stroke:#EFECE7;stroke-width:2"></circle><text x="34" y="19.9" text-anchor="start" style="fill:#1D1913">affinity on</text><line x1="150" x2="176" y1="15" y2="15" style="stroke:#2A78D6;stroke-width:2.5"/><rect x="158.5" y="10.5" width="9" height="9" style="fill:#2A78D6;stroke:#EFECE7;stroke-width:2"></rect><text x="184" y="19.9" text-anchor="start" style="fill:#1D1913">vLLM balancer</text><text x="0" y="54" text-anchor="start" style="fill:#1D1913;font-weight:600">Completed sessions per hour</text><line x1="43.5" x2="529" y1="352.5" y2="352.5" style="stroke:#CBC7BF;stroke-width:1"/><text x="35.5" y="357.4" text-anchor="end" style="fill:#565049">0</text><line x1="43.5" x2="529" y1="286.9" y2="286.9" style="stroke:#CBC7BF;stroke-width:1"/><text x="35.5" y="291.8" text-anchor="end" style="fill:#565049">200</text><line x1="43.5" x2="529" y1="221.2" y2="221.2" style="stroke:#CBC7BF;stroke-width:1"/><text x="35.5" y="226.2" text-anchor="end" style="fill:#565049">400</text><line x1="43.5" x2="529" y1="155.6" y2="155.6" style="stroke:#CBC7BF;stroke-width:1"/><text x="35.5" y="160.6" text-anchor="end" style="fill:#565049">600</text><line x1="43.5" x2="529" y1="90" y2="90" style="stroke:#CBC7BF;stroke-width:1"/><text x="35.5" y="95" text-anchor="end" style="fill:#565049">800</text><text x="0" y="76.5" text-anchor="start" style="fill:#565049">completed sessions per hour</text><text x="92" y="372.8" text-anchor="middle" style="fill:#565049">4</text><text x="189.2" y="372.8" text-anchor="middle" style="fill:#565049">8</text><text x="286.2" y="372.8" text-anchor="middle" style="fill:#565049">16</text><text x="383.4" y="372.8" text-anchor="middle" style="fill:#565049">24</text><text x="480.4" y="372.8" text-anchor="middle" style="fill:#565049">32</text><text x="286.2" y="395.2" text-anchor="middle" style="fill:#565049">concurrent sessions</text><polyline points="92,293.4 189.2,254.1 286.2,254.1 383.4,254.1 480.4,181.9" style="fill:none;stroke:#2A78D6;stroke-width:2.5;stroke-linejoin:round"/><rect x="87.5" y="288.9" width="9" height="9" style="fill:#2A78D6;stroke:#EFECE7;stroke-width:2"><title>vLLM balancer, 4 sessions: 180</title></rect><rect x="184.7" y="249.6" width="9" height="9" style="fill:#2A78D6;stroke:#EFECE7;stroke-width:2"><title>vLLM balancer, 8 sessions: 300</title></rect><rect x="281.8" y="249.6" width="9" height="9" style="fill:#2A78D6;stroke:#EFECE7;stroke-width:2"><title>vLLM balancer, 16 sessions: 300</title></rect><rect x="378.9" y="249.6" width="9" height="9" style="fill:#2A78D6;stroke:#EFECE7;stroke-width:2"><title>vLLM balancer, 24 sessions: 300</title></rect><rect x="475.9" y="177.4" width="9" height="9" style="fill:#2A78D6;stroke:#EFECE7;stroke-width:2"><title>vLLM balancer, 32 sessions: 520</title></rect><text x="492.4" y="186.8" text-anchor="start" style="fill:#1D1913">vLLM balancer</text><polyline points="92,273.7 189.2,227.8 286.2,234.4 383.4,214.7 480.4,149.1" style="fill:none;stroke:#A86400;stroke-width:2.5;stroke-linejoin:round"/><circle cx="92" cy="273.7" r="5" style="fill:#A86400;stroke:#EFECE7;stroke-width:2"><title>affinity on, 4 sessions: 240</title></circle><circle cx="189.2" cy="227.8" r="5" style="fill:#A86400;stroke:#EFECE7;stroke-width:2"><title>affinity on, 8 sessions: 380</title></circle><circle cx="286.2" cy="234.4" r="5" style="fill:#A86400;stroke:#EFECE7;stroke-width:2"><title>affinity on, 16 sessions: 360</title></circle><circle cx="383.4" cy="214.7" r="5" style="fill:#A86400;stroke:#EFECE7;stroke-width:2"><title>affinity on, 24 sessions: 420</title></circle><circle cx="480.4" cy="149.1" r="5" style="fill:#A86400;stroke:#EFECE7;stroke-width:2"><title>affinity on, 32 sessions: 620</title></circle><text x="492.4" y="154" text-anchor="start" style="fill:#1D1913">affinity on</text></svg>
