<svg xmlns="http://www.w3.org/2000/svg" viewBox="0 0 340 663" width="340" height="663" role="img" style="font-family:var(--sans, ui-sans-serif, system-ui, sans-serif);font-size:13px"><title>Time to first byte by concurrent sessions</title><desc>Median and 95th-percentile time to first byte on the four-card box at 4 to 32 concurrent sessions, affinity on against vLLM’s balancer, on a log scale from 0.3 to 100 seconds. 4 sessions: median 2.05 s off, 0.38 s on, p95 3.5 s off, 2.84 s on; 8 sessions: median 2.33 s off, 0.48 s on, p95 6.32 s off, 5.03 s on; 16 sessions: median 3.25 s off, 0.85 s on, p95 26.24 s off, 24.88 s on; 24 sessions: median 5.06 s off, 13.14 s on, p95 58.82 s off, 38.34 s on; 32 sessions: median 12.32 s off, 27.66 s on, p95 82.84 s off, 38.92 s on.</desc><line x1="0" x2="26" y1="13" y2="13" style="stroke:var(--series-on);stroke-width:2.5"/><circle cx="13" cy="13" r="5" style="fill:var(--series-on);stroke:var(--paper);stroke-width:2"></circle><text x="34" y="17.3" text-anchor="start" style="fill:var(--ink)">affinity on</text><line x1="130" x2="156" y1="13" y2="13" style="stroke:var(--series-off);stroke-width:2.5"/><rect x="138.5" y="8.5" width="9" height="9" style="fill:var(--series-off);stroke:var(--paper);stroke-width:2"></rect><text x="164" y="17.3" text-anchor="start" style="fill:var(--ink)">vLLM balancer</text><text x="0" y="46.8" text-anchor="start" style="fill:var(--ink);font-weight:600">Time to first byte, median</text><line x1="37.7" x2="243.8" y1="293.5" y2="293.5" style="stroke:var(--rule);stroke-width:1"/><text x="29.7" y="297.8" text-anchor="end" style="fill:var(--ink-2)">0.3</text><line x1="37.7" x2="243.8" y1="248.8" y2="248.8" style="stroke:var(--rule);stroke-width:1"/><text x="29.7" y="253.1" text-anchor="end" style="fill:var(--ink-2)">1</text><line x1="37.7" x2="243.8" y1="208.1" y2="208.1" style="stroke:var(--rule);stroke-width:1"/><text x="29.7" y="212.4" text-anchor="end" style="fill:var(--ink-2)">3</text><line x1="37.7" x2="243.8" y1="163.4" y2="163.4" style="stroke:var(--rule);stroke-width:1"/><text x="29.7" y="167.7" text-anchor="end" style="fill:var(--ink-2)">10</text><line x1="37.7" x2="243.8" y1="122.7" y2="122.7" style="stroke:var(--rule);stroke-width:1"/><text x="29.7" y="127" text-anchor="end" style="fill:var(--ink-2)">30</text><line x1="37.7" x2="243.8" y1="78" y2="78" style="stroke:var(--rule);stroke-width:1"/><text x="29.7" y="82.3" text-anchor="end" style="fill:var(--ink-2)">100</text><text x="0" y="66.3" text-anchor="start" style="fill:var(--ink-2)">seconds, log scale</text><text x="58.3" y="311.1" text-anchor="middle" style="fill:var(--ink-2)">4</text><text x="99.5" y="311.1" text-anchor="middle" style="fill:var(--ink-2)">8</text><text x="140.8" y="311.1" text-anchor="middle" style="fill:var(--ink-2)">16</text><text x="182" y="311.1" text-anchor="middle" style="fill:var(--ink-2)">24</text><text x="223.2" y="311.1" text-anchor="middle" style="fill:var(--ink-2)">32</text><text x="140.8" y="330.6" text-anchor="middle" style="fill:var(--ink-2)">concurrent sessions</text><polyline points="58.3,222.2 99.5,217.5 140.8,205.1 182,188.7 223.2,155.7" style="fill:none;stroke:var(--series-off);stroke-width:2.5;stroke-linejoin:round"/><rect x="53.8" y="217.7" width="9" height="9" style="fill:var(--series-off);stroke:var(--paper);stroke-width:2"><title>vLLM balancer, 4 sessions: 2.05 s</title></rect><rect x="95" y="213" width="9" height="9" style="fill:var(--series-off);stroke:var(--paper);stroke-width:2"><title>vLLM balancer, 8 sessions: 2.33 s</title></rect><rect x="136.2" y="200.6" width="9" height="9" style="fill:var(--series-off);stroke:var(--paper);stroke-width:2"><title>vLLM balancer, 16 sessions: 3.25 s</title></rect><rect x="177.5" y="184.2" width="9" height="9" style="fill:var(--series-off);stroke:var(--paper);stroke-width:2"><title>vLLM balancer, 24 sessions: 5.06 s</title></rect><rect x="218.7" y="151.2" width="9" height="9" style="fill:var(--series-off);stroke:var(--paper);stroke-width:2"><title>vLLM balancer, 32 sessions: 12.32 s</title></rect><text x="235.2" y="160" text-anchor="start" style="fill:var(--ink)">vLLM balancer</text><polyline points="58.3,284.7 99.5,276.1 140.8,254.9 182,153.3 223.2,125.7" style="fill:none;stroke:var(--series-on);stroke-width:2.5;stroke-linejoin:round"/><circle cx="58.3" cy="284.7" r="5" style="fill:var(--series-on);stroke:var(--paper);stroke-width:2"><title>affinity on, 4 sessions: 0.38 s</title></circle><circle cx="99.5" cy="276.1" r="5" style="fill:var(--series-on);stroke:var(--paper);stroke-width:2"><title>affinity on, 8 sessions: 0.48 s</title></circle><circle cx="140.8" cy="254.9" r="5" style="fill:var(--series-on);stroke:var(--paper);stroke-width:2"><title>affinity on, 16 sessions: 0.85 s</title></circle><circle cx="182" cy="153.3" r="5" style="fill:var(--series-on);stroke:var(--paper);stroke-width:2"><title>affinity on, 24 sessions: 13.14 s</title></circle><circle cx="223.2" cy="125.7" r="5" style="fill:var(--series-on);stroke:var(--paper);stroke-width:2"><title>affinity on, 32 sessions: 27.66 s</title></circle><text x="235.2" y="130" text-anchor="start" style="fill:var(--ink)">affinity on</text><text x="0" y="372.8" text-anchor="start" style="fill:var(--ink);font-weight:600">Time to first byte, p95</text><line x1="37.7" x2="243.8" y1="619.5" y2="619.5" style="stroke:var(--rule);stroke-width:1"/><text x="29.7" y="623.8" text-anchor="end" style="fill:var(--ink-2)">0.3</text><line x1="37.7" x2="243.8" y1="574.8" y2="574.8" style="stroke:var(--rule);stroke-width:1"/><text x="29.7" y="579.1" text-anchor="end" style="fill:var(--ink-2)">1</text><line x1="37.7" x2="243.8" y1="534.1" y2="534.1" style="stroke:var(--rule);stroke-width:1"/><text x="29.7" y="538.4" text-anchor="end" style="fill:var(--ink-2)">3</text><line x1="37.7" x2="243.8" y1="489.4" y2="489.4" style="stroke:var(--rule);stroke-width:1"/><text x="29.7" y="493.7" text-anchor="end" style="fill:var(--ink-2)">10</text><line x1="37.7" x2="243.8" y1="448.7" y2="448.7" style="stroke:var(--rule);stroke-width:1"/><text x="29.7" y="453" text-anchor="end" style="fill:var(--ink-2)">30</text><line x1="37.7" x2="243.8" y1="404" y2="404" style="stroke:var(--rule);stroke-width:1"/><text x="29.7" y="408.3" text-anchor="end" style="fill:var(--ink-2)">100</text><text x="0" y="392.3" text-anchor="start" style="fill:var(--ink-2)">seconds, log scale</text><text x="58.3" y="637" text-anchor="middle" style="fill:var(--ink-2)">4</text><text x="99.5" y="637" text-anchor="middle" style="fill:var(--ink-2)">8</text><text x="140.8" y="637" text-anchor="middle" style="fill:var(--ink-2)">16</text><text x="182" y="637" text-anchor="middle" style="fill:var(--ink-2)">24</text><text x="223.2" y="637" text-anchor="middle" style="fill:var(--ink-2)">32</text><text x="140.8" y="656.5" text-anchor="middle" style="fill:var(--ink-2)">concurrent sessions</text><polyline points="58.3,528.4 99.5,506.4 140.8,453.6 182,423.7 223.2,411" style="fill:none;stroke:var(--series-off);stroke-width:2.5;stroke-linejoin:round"/><rect x="53.8" y="523.9" width="9" height="9" style="fill:var(--series-off);stroke:var(--paper);stroke-width:2"><title>vLLM balancer, 4 sessions: 3.5 s</title></rect><rect x="95" y="501.9" width="9" height="9" style="fill:var(--series-off);stroke:var(--paper);stroke-width:2"><title>vLLM balancer, 8 sessions: 6.32 s</title></rect><rect x="136.2" y="449.1" width="9" height="9" style="fill:var(--series-off);stroke:var(--paper);stroke-width:2"><title>vLLM balancer, 16 sessions: 26.24 s</title></rect><rect x="177.5" y="419.2" width="9" height="9" style="fill:var(--series-off);stroke:var(--paper);stroke-width:2"><title>vLLM balancer, 24 sessions: 58.82 s</title></rect><rect x="218.7" y="406.5" width="9" height="9" style="fill:var(--series-off);stroke:var(--paper);stroke-width:2"><title>vLLM balancer, 32 sessions: 82.84 s</title></rect><text x="235.2" y="415.3" text-anchor="start" style="fill:var(--ink)">vLLM balancer</text><polyline points="58.3,536.1 99.5,514.9 140.8,455.6 182,439.6 223.2,439" style="fill:none;stroke:var(--series-on);stroke-width:2.5;stroke-linejoin:round"/><circle cx="58.3" cy="536.1" r="5" style="fill:var(--series-on);stroke:var(--paper);stroke-width:2"><title>affinity on, 4 sessions: 2.84 s</title></circle><circle cx="99.5" cy="514.9" r="5" style="fill:var(--series-on);stroke:var(--paper);stroke-width:2"><title>affinity on, 8 sessions: 5.03 s</title></circle><circle cx="140.8" cy="455.6" r="5" style="fill:var(--series-on);stroke:var(--paper);stroke-width:2"><title>affinity on, 16 sessions: 24.88 s</title></circle><circle cx="182" cy="439.6" r="5" style="fill:var(--series-on);stroke:var(--paper);stroke-width:2"><title>affinity on, 24 sessions: 38.34 s</title></circle><circle cx="223.2" cy="439" r="5" style="fill:var(--series-on);stroke:var(--paper);stroke-width:2"><title>affinity on, 32 sessions: 38.92 s</title></circle><text x="235.2" y="443.3" text-anchor="start" style="fill:var(--ink)">affinity on</text></svg>
